<svg height="512pt" viewBox="-69 0 512 512" width="512pt" xmlns="http://www.w3.org/2000/svg"><path d="m367.273438 457.753906c0-25.820312-80.539063-46.75-179.886719-46.75-99.347657 0-179.886719 20.929688-179.886719 46.75 0 25.816406 80.539062 46.746094 179.886719 46.746094 99.347656 0 179.886719-20.929688 179.886719-46.746094zm0 0" fill="#e34b4c"/><path d="m301.308594 58.277344c-28.886719-32.117188-70.722656-50.777344-113.921875-50.777344-43.195313 0-85.03125 18.660156-113.917969 50.777344-74.082031 82.367187-36.476562 205.039062 14.71875 287.425781 27.765625 44.675781 62.066406 85.117187 99.199219 122.253906 37.136719-37.132812 71.4375-77.578125 99.199219-122.253906 51.195312-82.382813 88.804687-205.058594 14.722656-287.425781zm0 0" fill="#fd6f71"/><path d="m308.398438 161.5c0 66.832031-54.179688 121.007812-121.011719 121.007812s-121.007813-54.175781-121.007813-121.007812 54.175782-121.007812 121.007813-121.007812 121.011719 54.175781 121.011719 121.007812zm0 0" fill="#efedee"/><path d="m187.390625 109.53125c-43.246094 0-78.296875 15.746094-78.296875 59.847656 0 44.097656 35.050781 79.84375 78.296875 79.84375 43.238281 0 78.292969-35.746094 78.292969-79.84375 0-44.101562-35.054688-59.847656-78.292969-59.847656zm0 0" fill="#fbc4ac"/><path d="m261.9375 144.910156c-5.378906-65.457031-31.773438-55.378906-74.546875-55.378906-32.335937 0-47.867187-3.238281-54.484375-5.300781-2.644531-.828125-5.492188.363281-6.75 2.832031-5.28125 10.367188-17.0625 38.40625-17.0625 82.3125 0 0 18.726562-33.722656 78.296875-33.722656 27.710937.003906 25.390625 9.257812 74.546875 9.257812zm0 0" fill="#c86d5c"/><path d="m273.320312 247.015625c3.109376 2.734375 7.847657 2.429687 10.585938-.679687 20.628906-23.449219 31.988281-53.582032 31.988281-84.835938 0-70.859375-57.648437-128.507812-128.507812-128.507812s-128.507813 57.648437-128.507813 128.507812 57.648438 128.507812 128.507813 128.507812c26.324219 0 51.632812-7.910156 73.195312-22.878906 3.402344-2.363281 4.246094-7.035156 1.886719-10.4375-2.363281-3.402344-7.035156-4.246094-10.441406-1.882812-19.039063 13.214844-41.390625 20.199218-64.640625 20.199218-62.589844 0-113.507813-50.917968-113.507813-113.507812s50.917969-113.507812 113.507813-113.507812c62.589843 0 113.507812 50.917968 113.507812 113.507812 0 27.605469-10.03125 54.21875-28.253906 74.929688-2.734375 3.109374-2.429687 7.847656.679687 10.585937zm0 0"/><path d="m229.125 165.671875c-4.144531 0-7.5 3.355469-7.5 7.5v8.113281c0 4.144532 3.355469 7.5 7.5 7.5 4.140625 0 7.5-3.355468 7.5-7.5v-8.113281c0-4.144531-3.359375-7.5-7.5-7.5zm0 0"/><path d="m145.648438 165.671875c-4.140626 0-7.5 3.355469-7.5 7.5v8.113281c0 4.144532 3.359374 7.5 7.5 7.5 4.144531 0 7.5-3.355468 7.5-7.5v-8.113281c0-4.144531-3.355469-7.5-7.5-7.5zm0 0"/><path d="m205.539062 182.535156c-3.121093-2.726562-7.859374-2.410156-10.585937.707032-1.820313 2.085937-4.582031 3.285156-7.566406 3.285156-2.988281 0-5.746094-1.199219-7.570313-3.285156-2.722656-3.117188-7.464844-3.433594-10.582031-.707032-3.117187 2.726563-3.4375 7.460938-.710937 10.582032 4.671874 5.34375 11.546874 8.410156 18.863281 8.410156 7.3125 0 14.1875-3.066406 18.859375-8.410156 2.730468-3.117188 2.410156-7.855469-.707032-10.582032zm0 0"/><path d="m269.347656 143.582031c-2.175781-25.574219-7.519531-41.257812-17.300781-50.78125-10.226563-9.957031-23.9375-11.328125-37.226563-11.328125-9.144531 0-18.285156.558594-27.429687.558594-31.628906 0-46.3125-3.105469-52.246094-4.960938-6.074219-1.894531-12.78125.925782-15.667969 6.589844-5.378906 10.550782-17.882812 40.023438-17.882812 85.71875 0 48.160156 38.488281 87.34375 85.796875 87.34375 47.304687 0 85.792969-39.183594 85.792969-87.34375 0-8.769531-1.300782-17.441406-3.835938-25.796875zm-137.1875-51.75c8.6875 2.46875 25.109375 5.199219 55.230469 5.199219 9.144531 0 18.285156-.558594 27.429687-.558594 20.703126 0 34.066407 2.085938 38.808594 40.835938-9.507812-.238282-19.042968-.871094-28.386718-2.742188-8.164063-1.632812-16.058594-4.398437-24.320313-5.550781-3.808594-.527344-8.160156-.863281-13.535156-.863281-10.609375 0-21.253907 1-31.59375 3.421875-12.277344 2.875-24.171875 7.71875-34.511719 14.996093-1.207031.84375-3.730469 2.777344-3.820312 2.851563 2.601562-29.355469 10.421874-48.832031 14.699218-57.589844zm55.230469 149.890625c-38.332031 0-69.648437-31.289062-70.769531-70.1875.015625-.023437.027344-.039062.042968-.0625.042969-.058594.09375-.125.136719-.1875 3.574219-4.976562 8.269531-9.164062 13.289063-12.640625 10.113281-6.996093 21.90625-11.261719 33.949218-13.472656 12.699219-2.332031 26.507813-3.183594 39.226563-.53125 8.050781 1.675781 15.863281 4.21875 24.003906 5.519531 5.65625.902344 11.363281 1.441406 17.078125 1.773438.976563.058594 11.855469.492187 11.855469.429687 1.316406 5.5625 1.980469 11.261719 1.980469 17.011719 0 39.894531-31.757813 72.347656-70.792969 72.347656zm0 0"/><path d="m187.386719 512c48.667969 0 94.511719-4.949219 129.085937-13.933594 38.683594-10.054687 58.300782-23.617187 58.300782-40.316406 0-28.769531-60.734376-44.945312-122.191407-51.109375 15.070313-18.921875 28.480469-37.839844 40.375-56.980469 29.769531-47.90625 49.449219-100.015625 55.40625-146.726562 3.582031-28.066406 2.359375-54.445313-3.628906-78.402344-6.703125-26.820312-19.4375-50.796875-37.851563-71.269531-30.445312-33.847657-74-53.261719-119.496093-53.261719-40.261719 0-78.871094 15.058594-108.710938 42.398438-3.054687 2.796874-3.261719 7.539062-.460937 10.59375 2.796875 3.054687 7.539062 3.261718 10.59375.464843 26.675781-24.441406 62.605468-38.457031 98.578125-38.457031 41.25 0 80.742187 17.601562 108.34375 48.292969 32.152343 35.746093 44.855469 82.089843 37.757812 137.742187-5.695312 44.621094-24.613281 94.59375-53.269531 140.707032-13.789062 22.191406-29.671875 44.097656-47.929688 66.09375-.074218.082031-.15625.15625-.226562.242187-10.082031 12.132813-20.996094 24.417969-32.597656 36.699219-3.253906 3.445312-11.328125 11.769531-12.078125 12.527344-.785157-.796876-8.835938-9.101563-12.046875-12.496094-11.613282-12.292969-22.535156-24.585938-32.625-36.730469-.070313-.089844-.152344-.164063-.230469-.246094-18.253906-21.996093-34.136719-43.902343-47.925781-66.089843-27.429688-44.136719-46.078125-92.195313-52.515625-135.328126-7.988281-53.507812 2.035156-98.753906 29.792969-134.480468 2.539062-3.269532 1.949218-7.980469-1.324219-10.523438-3.269531-2.539062-7.980469-1.949218-10.523438 1.320313-30.367187 39.089843-41.394531 88.175781-32.78125 145.902343 6.730469 45.105469 26.125 95.191407 54.609375 141.027344 11.898438 19.140625 25.308594 38.058594 40.378906 56.980469-61.460937 6.164063-122.195312 22.339844-122.195312 51.109375 0 16.699219 19.613281 30.261719 58.300781 40.316406 34.574219 8.984375 80.417969 13.933594 129.085938 13.933594zm-172.386719-54.25c0-11.164062 37.738281-30.460938 118.652344-37.097656 9.027344 10.742187 18.617187 21.507812 28.789062 32.332031 6.441406 6.863281 12.988282 13.621094 19.644532 20.277344 2.851562 2.847656 7.761718 2.84375 10.605468 0 6.648438-6.652344 12.984375-13.613281 19.628906-20.261719 10.175782-10.828125 19.773438-21.597656 28.800782-32.347656 80.914062 6.636718 118.652344 25.933594 118.652344 37.097656 0 3.378906-3.847657 7.683594-10.5625 11.808594-8.308594 5.101562-20.933594 9.941406-36.511719 13.992187-33.378907 8.671875-77.882813 13.449219-125.3125 13.449219-47.433594 0-91.933594-4.777344-125.3125-13.449219-37.160157-9.660156-47.074219-20.761719-47.074219-25.800781zm0 0"/></svg>